:SAMPLES-PER-SECOND 30
:FULLY-SPECIFIED
:DEGREES
92
root  87.726 38.9882 -2.78876 -112.987 -84.4344 117.949
RightUpLeg  -6.63096 -13.7356 -10.8652
RightLeg  10.6103 1.68812 1.73753
RightFoot  -10.5009 -0.135367 8.7487
RightToes  -2.9104e-010 0 -3.6325e-017
Spine  5.45398 -0.525802 4.64049
Spine1  0.74062 -0.318501 -0.167106
HEad  -8.66532 -16.3281 -13.7634
LeftShoulder1  -0.560157 4.90517 -33.8134
LeftArm  5.00619 13.2262 -41.1421
LeftForeArm  25.1797 -27.4952 -4.56251
LeftHand  -0.0263907 4.65317 1.19412
RightShoulder  -0.830588 -5.7823 29.8336
RightArm  19.852 -3.97219 39.1937
RightForeArm  4.05624 21.8678 4.66242
RightHand  -0.045139 5.10608 -0.802492
LeftUpLeg  -11.2802 14.4248 -1.04087
LeftLeg  25.3338 0.470531 0.579362
LeftFoot  -10.5851 0.0917139 -4.11025
LeftToes  -3.37426e-010 -1.91496e-010 5.23909e-011
93
root  88.039 39.0184 -2.77305 -93.575 -85.5244 98.9601
RightUpLeg  -6.30934 -13.4406 -10.2326
RightLeg  9.0369 -0.44437 2.05906
RightFoot  -9.91481 -0.177428 8.78839
RightToes  -2.9104e-010 0 -3.6325e-017
Spine  4.97862 -0.604729 4.89163
Spine1  0.391104 -0.473312 0.0894582
HEad  -8.56707 -17.5313 -13.8756
LeftShoulder1  -0.573641 4.93606 -33.8907
LeftArm  5.45195 13.7554 -40.6259
LeftForeArm  24.4066 -26.2674 -4.33485
LeftHand  -0.0243542 4.33274 0.0168137
RightShoulder  -0.853964 -5.85065 29.7789
RightArm  19.1083 -3.17207 39.9923
RightForeArm  4.66315 21.9665 4.63808
RightHand  -0.093901 4.60579 -1.38135
LeftUpLeg  -9.37426 16.4582 -1.33168
LeftLeg  21.302 1.38501 0.986509
LeftFoot  -11.4023 0.0660898 -3.31588
LeftToes  -3.37426e-010 -1.91496e-010 5.23909e-011
94
root  88.3563 39.0511 -2.70029 -59.429 -85.9644 65.3632
RightUpLeg  -5.9702 -13.3367 -9.82369
RightLeg  7.29543 -3.09727 2.35382
RightFoot  -9.24803 -0.228447 9.06023
RightToes  -2.9104e-010 0 -3.6325e-017
Spine  4.294 -0.781319 4.60455
Spine1  0.106145 -0.806441 0.534066
HEad  -8.2925 -19.167 -14.0706
LeftShoulder1  -0.578557 4.9409 -34.0951
LeftArm  6.57082 13.7096 -40.2619
LeftForeArm  23.3987 -24.4944 -4.00446
LeftHand  -0.0235995 4.87247 -0.86097
RightShoulder  -0.836616 -5.80046 29.8102
RightArm  17.6635 -2.79258 40.2223
RightForeArm  5.2315 22.8836 4.65603
RightHand  -0.0520749 5.01917 -0.875819
LeftUpLeg  -7.88523 15.7827 -1.77335
LeftLeg  17.1149 5.1489 1.64503
LeftFoot  -11.8424 0.0561537 -3.61633
LeftToes  -3.37426e-010 -1.91496e-010 5.23909e-011
95
root  88.5206 39.0939 -2.56811 -58.945 -86.3479 64.3737
RightUpLeg  -5.05867 -13.1299 -9.68331
RightLeg  5.92155 -3.02389 2.54297
RightFoot  -8.41586 -0.285502 8.90286
RightToes  -2.9104e-010 0 -3.6325e-017
Spine  4.01423 -0.0385855 4.41685
Spine1  0.823022 0.00330588 0.0837598
HEad  -8.30204 -20.4996 -13.888
LeftShoulder1  -0.57201 4.92682 -34.0311
LeftArm  6.50011 14.0068 -40.0191
LeftForeArm  22.6017 -22.8639 -3.87612
LeftHand  -0.0204521 4.94876 -1.84244
RightShoulder  -0.850239 -5.82954 29.9455
RightArm  16.7826 -1.76496 40.628
RightForeArm  5.23063 23.5767 4.78086
RightHand  -0.119069 5.09515 -1.62653
LeftUpLeg  -3.85845 12.4277 -1.41801
LeftLeg  10.9935 13.4109 0.633266
LeftFoot  -11.2783 0.0632417 -3.68983
LeftToes  -3.37426e-010 -1.91496e-010 5.23909e-011
96
root  88.7439 39.1261 -2.41116 -41.2991 -86.4734 46.463
RightUpLeg  -4.48604 -12.7251 -9.11571
RightLeg  4.95377 -4.20368 2.65867
RightFoot  -7.46319 -0.353719 8.94134
RightToes  -2.9104e-010 0 -3.6325e-017
Spine  4.32934 0.233511 4.04397
Spine1  0.490022 0.220722 0.239771
HEad  -8.1901 -21.4186 -13.2279
LeftShoulder1  -0.545954 4.86883 -33.8364
LeftArm  5.5788 14.5478 -40.0282
LeftForeArm  22.6196 -21.1809 -4.16127
LeftHand  -0.0341913 5.83566 -1.17825
RightShoulder  -0.851126 -5.82462 30.0613
RightArm  16.1063 -1.09041 40.6794
RightForeArm  5.83485 24.9253 5.03355
RightHand  -0.122931 4.53698 -1.71391
LeftUpLeg  -1.60182 7.05475 -1.37876
LeftLeg  6.37313 20.6374 -0.515843
LeftFoot  -9.58327 0.0784277 -1.1151
LeftToes  -3.37426e-010 -1.91496e-010 5.23909e-011
97
root  88.9889 39.1201 -2.21471 -19.0441 -85.4406 23.7925
RightUpLeg  -3.97871 -12.835 -8.92495
RightLeg  4.78759 -5.7124 2.84637
RightFoot  -6.88138 -0.385333 8.6708
RightToes  -2.9104e-010 0 -3.6325e-017
Spine  4.70927 0.0858504 2.68832
Spine1  0.327349 -0.173131 1.26066
HEad  -7.64165 -21.9742 -12.2816
LeftShoulder1  -0.593434 4.97468 -34.1794
LeftArm  4.99984 14.8592 -39.5253
LeftForeArm  22.843 -19.9778 -4.5975
LeftHand  -0.0390727 6.16364 -1.57773
RightShoulder  -0.855701 -5.85655 29.7625
RightArm  15.8043 0.0144764 41.2317
RightForeArm  4.86173 24.917 5.0845
RightHand  -0.183251 5.05777 -2.33989
LeftUpLeg  -1.23859 5.51457 -2.00294
LeftLeg  5.28323 21.6859 0.596713
LeftFoot  -9.63102 0.0533457 0.314622
LeftToes  -3.37426e-010 -1.91496e-010 5.23909e-011
98
root  89.2251 39.062 -2.04383 -10.0044 -84.5258 14.2632
RightUpLeg  -4.71525 -12.945 -8.25362
RightLeg  6.75043 -6.83941 1.69596
RightFoot  -6.92891 -0.384703 8.74193
RightToes  -2.9104e-010 0 -3.6325e-017
Spine  4.87684 0.121048 1.02271
Spine1  0.623241 -0.368564 2.17085
HEad  -7.22589 -22.44 -10.899
LeftShoulder1  -0.631082 5.06491 -34.2576
LeftArm  3.51392 14.5493 -39.0257
LeftForeArm  24.4434 -18.0208 -5.35746
LeftHand  -0.0154426 4.65812 -2.18174
RightShoulder  -0.794929 -5.68911 29.7385
RightArm  14.9025 1.07778 42.182
RightForeArm  5.62815 24.2893 4.90561
RightHand  -0.149286 4.56504 -2.02972
LeftUpLeg  -1.55269 6.25819 -1.41222
LeftLeg  5.96511 19.6747 0.396147
LeftFoot  -9.06885 0.0450717 0.449483
LeftToes  -3.37426e-010 -1.91496e-010 5.23909e-011
99
root  89.4846 38.9812 -1.83527 -11.3833 -83.1642 15.1088
RightUpLeg  -6.11573 -15.4694 -8.69427
RightLeg  10.2659 -5.6602 0.638498
RightFoot  -7.20797 -0.34566 8.20887
RightToes  -2.9104e-010 0 -3.6325e-017
Spine  5.50189 0.093574 -0.652301
Spine1  0.705977 -0.416857 2.09374
HEad  -7.05473 -23.5051 -9.43328
LeftShoulder1  -0.57166 4.92045 -34.1863
LeftArm  1.90309 13.7588 -38.5879
LeftForeArm  25.9122 -16.0898 -6.18718
LeftHand  -0.0487275 6.48974 -1.65196
RightShoulder  -0.758824 -5.60241 29.5066
RightArm  12.6462 1.01571 43.6728
RightForeArm  6.39121 23.4056 4.67925
RightHand  -0.17105 4.67597 -2.26353
LeftUpLeg  -1.81373 6.45129 -1.75241
LeftLeg  6.79907 17.8971 -0.0793811
LeftFoot  -8.91307 0.0307771 1.04808
LeftToes  -3.37426e-010 -1.91496e-010 5.23909e-011
